<svg preserveAspectRatio="none" width="528" height="1219.3" viewBox="0 0 528 1199" fill="none" xmlns="http://www.w3.org/2000/svg" xmlns:c2pa="http://c2pa.org/manifest"><metadata><c2pa:manifest>AAAWgmp1bWIAAAAeanVtZGMycGEAEQAQgAAAqgA4m3EDYzJwYQAAABZcanVtYgAAAEdqdW1kYzJtYQARABCAAACqADibcQN1cm46YzJwYTpkNDNmY2VkNC0wYWU0LTRmNGMtOGEzYy1hZTdkYjQxNGFmYjUAAAADl2p1bWIAAAApanVtZGMyYXMAEQAQgAAAqgA4m3EDYzJwYS5hc3NlcnRpb25zAAAAALxqdW1iAAAARGp1bWRjYm9yABEAEIAAAKoAOJtxE2MycGEuaW5ncmVkaWVudC52MwAAAAAYYzJzaO346SPVN6pZcg0soKrLgmoAAABwY2JvcqNpZGM6Zm9ybWF0bWltYWdlL3N2Zyt4bWxqaW5zdGFuY2VJRHgseG1wOmlpZDoyYzEwNzRmYS1hZTQ3LTQwMjEtYTM2NS1kZjQ1ODk2NDc4NzRscmVsYXRpb25zaGlwaHBhcmVudE9mAAAB4mp1bWIAAABBanVtZGNib3IAEQAQgAAAqgA4m3ETYzJwYS5hY3Rpb25zLnYyAAAAABhjMnNo+kbJvQglyt7+Xr0H7MlCuwAAAZljYm9yomdhY3Rpb25zgqJmYWN0aW9ua2MycGEub3BlbmVkanBhcmFtZXRlcnOha2luZ3JlZGllbnRzgaJjdXJseC1zZWxmI2p1bWJmPWMycGEuYXNzZXJ0aW9ucy9jMnBhLmluZ3JlZGllbnQudjNkaGFzaFgg+EP/53LSa5uPhkQaQMPJr6Lc6dayiqfT8lL7qf5P1MWkZmFjdGlvbngdY29tLmFudGhyb3BpYy5jbGF1ZGUucHJvdmlkZWRqcGFyYW1ldGVyc6F4H2NvbS5hbnRocm9waWMub3JpZ2luLWNvbmZpZGVuY2VndW5rbm93bmtkZXNjcmlwdGlvbnhmQ2xhdWRlIHByb3ZpZGVkIHRoaXMgZmlsZSBhdCB0aGUgcmVxdWVzdCBvZiBhIHVzZXIgYW5kIG1heSBoYXZlIGNyZWF0ZWQgb3IgbW9kaWZpZWQgdGhlIGZpbGUgY29udGVudHMubXNvZnR3YXJlQWdlbnShZG5hbWVmQ2xhdWRlcmFsbEFjdGlvbnNJbmNsdWRlZPUAAADIanVtYgAAAEBqdW1kY2JvcgARABCAAACqADibcRNjMnBhLmhhc2guZGF0YQAAAAAYYzJzaLnVr1qErp1S/sTqAcOtF88AAACAY2JvcqVjYWxnZnNoYTI1NmNwYWRNAAAAAAAAAAAAAAAAAGRoYXNoWCCwOae0BTsMuzwuovCqsRq0A3BTWeDs6Gon6AybZBwra2RuYW1lbmp1bWJmIG1hbmlmZXN0amV4Y2x1c2lvbnOBomVzdGFydBjBZmxlbmd0aBkeBAAAAj5qdW1iAAAAJ2p1bWRjMmNsABEAEIAAAKoAOJtxA2MycGEuY2xhaW0udjIAAAACD2Nib3KlY2FsZ2ZzaGEyNTZpc2lnbmF0dXJleE1zZWxmI2p1bWJmPS9jMnBhL3VybjpjMnBhOmQ0M2ZjZWQ0LTBhZTQtNGY0Yy04YTNjLWFlN2RiNDE0YWZiNS9jMnBhLnNpZ25hdHVyZWppbnN0YW5jZUlEeCx4bXA6aWlkOmI3Njk0MTMzLWM3NTAtNDRlNi05YWM1LTRlMTMxZjk5Njc1ZXJjcmVhdGVkX2Fzc2VydGlvbnODomN1cmx4LXNlbGYjanVtYmY9YzJwYS5hc3NlcnRpb25zL2MycGEuaW5ncmVkaWVudC52M2RoYXNoWCD4Q//nctJrm4+GRBpAw8mvotzp1rKKp9PyUvup/k/UxaJjdXJseCpzZWxmI2p1bWJmPWMycGEuYXNzZXJ0aW9ucy9jMnBhLmFjdGlvbnMudjJkaGFzaFgg+VlcXGCM+sa0kh22shHKWc6a9RwC5offdInHYz+Ufy2iY3VybHgpc2VsZiNqdW1iZj1jMnBhLmFzc2VydGlvbnMvYzJwYS5oYXNoLmRhdGFkaGFzaFggwAXKHcLckXF8yxT6miI1++Kdakb2Z0U+KJnUQH0bqR90Y2xhaW1fZ2VuZXJhdG9yX2luZm+jZG5hbWVvQW50aHJvcGljIEZpbGVzZ3ZlcnNpb25lMS4wLjBrc3BlY1ZlcnNpb25lMi40LjAAABA4anVtYgAAAChqdW1kYzJjcwARABCAAACqADibcQNjMnBhLnNpZ25hdHVyZQAAABAIY2JvctKEWQISogEmGCFZAgowggIGMIIBjaADAgECAhRA5aAK7sI50L64g/oGQgU9Z1UTADAKBggqhkjOPQQDAzBJMRcwFQYDVQQKEw5BbnRocm9waWMsIFBCQzEuMCwGA1UEAxMlQW50aHJvcGljIENvbnRlbnQgQ3JlZGVudGlhbHMgUm9vdCBDQTAeFw0yNjA4MDcxODQzNTZaFw0yODA4MDYxOTQzNTZaMEQxFzAVBgNVBAoTDkFudGhyb3BpYywgUEJDMSkwJwYDVQQDEyBBbnRocm9waWMgQ2xhdWRlIENvbnRlbnQgU2lnbmluZzBZMBMGByqGSM49AgEGCCqGSM49AwEHA0IABJh6CmvLUBgFFNU0vUKlOVtE6djd17L5SuwX0LemFisBM3dkd/3cyjxFA3Qo5S46fX0/ihY0VZ7mfb9KF703t5OjWDBWMA4GA1UdDwEB/wQEAwIHgDAVBgNVHSUEDjAMBgorBgEEAYPoXgIBMAwGA1UdEwEB/wQCMAAwHwYDVR0jBBgwFoAUzlHiBIFOZFsj+OPEz5o+nMHXXMIwCgYIKoZIzj0EAwMDZwAwZAIwMXMdFJ4BetLLVY7ORuE9noqbbAZOZn/aArXyTwFAZfKrPzxF2vPoJNf1+UCdg1XGAjBwX1zd9WGqYkqmL5SFqw1QySjr1zJfpJM9+1rdDwSPLMOPOjKuiXjoU/pUUeG9RwmhY3BhZFkNngAAAAAAAAAAAAAAAAAAAAAAAAAAAAAAAAAAAAAAAAAAAAAAAAAAAAAAAAAAAAAAAAAAAAAAAAAAAAAAAAAAAAAAAAAAAAAAAAAAAAAAAAAAAAAAAAAAAAAAAAAAAAAAAAAAAAAAAAAAAAAAAAAAAAAAAAAAAAAAAAAAAAAAAAAAAAAAAAAAAAAAAAAAAAAAAAAAAAAAAAAAAAAAAAAAAAAAAAAAAAAAAAAAAAAAAAAAAAAAAAAAAAAAAAAAAAAAAAAAAAAAAAAAAAAAAAAAAAAAAAAAAAAAAAAAAAAAAAAAAAAAAAAAAAAAAAAAAAAAAAAAAAAAAAAAAAAAAAAAAAAAAAAAAAAAAAAAAAAAAAAAAAAAAAAAAAAAAAAAAAAAAAAAAAAAAAAAAAAAAAAAAAAAAAAAAAAAAAAAAAAAAAAAAAAAAAAAAAAAAAAAAAAAAAAAAAAAAAAAAAAAAAAAAAAAAAAAAAAAAAAAAAAAAAAAAAAAAAAAAAAAAAAAAAAAAAAAAAAAAAAAAAAAAAAAAAAAAAAAAAAAAAAAAAAAAAAAAAAAAAAAAAAAAAAAAAAAAAAAAAAAAAAAAAAAAAAAAAAAAAAAAAAAAAAAAAAAAAAAAAAAAAAAAAAAAAAAAAAAAAAAAAAAAAAAAAAAAAAAAAAAAAAAAAAAAAAAAAAAAAAAAAAAAAAAAAAAAAAAAAAAAAAAAAAAAAAAAAAAAAAAAAAAAAAAAAAAAAAAAAAAAAAAAAAAAAAAAAAAAAAAAAAAAAAAAAAAAAAAAAAAAAAAAAAAAAAAAAAAAAAAAAAAAAAAAAAAAAAAAAAAAAAAAAAAAAAAAAAAAAAAAAAAAAAAAAAAAAAAAAAAAAAAAAAAAAAAAAAAAAAAAAAAAAAAAAAAAAAAAAAAAAAAAAAAAAAAAAAAAAAAAAAAAAAAAAAAAAAAAAAAAAAAAAAAAAAAAAAAAAAAAAAAAAAAAAAAAAAAAAAAAAAAAAAAAAAAAAAAAAAAAAAAAAAAAAAAAAAAAAAAAAAAAAAAAAAAAAAAAAAAAAAAAAAAAAAAAAAAAAAAAAAAAAAAAAAAAAAAAAAAAAAAAAAAAAAAAAAAAAAAAAAAAAAAAAAAAAAAAAAAAAAAAAAAAAAAAAAAAAAAAAAAAAAAAAAAAAAAAAAAAAAAAAAAAAAAAAAAAAAAAAAAAAAAAAAAAAAAAAAAAAAAAAAAAAAAAAAAAAAAAAAAAAAAAAAAAAAAAAAAAAAAAAAAAAAAAAAAAAAAAAAAAAAAAAAAAAAAAAAAAAAAAAAAAAAAAAAAAAAAAAAAAAAAAAAAAAAAAAAAAAAAAAAAAAAAAAAAAAAAAAAAAAAAAAAAAAAAAAAAAAAAAAAAAAAAAAAAAAAAAAAAAAAAAAAAAAAAAAAAAAAAAAAAAAAAAAAAAAAAAAAAAAAAAAAAAAAAAAAAAAAAAAAAAAAAAAAAAAAAAAAAAAAAAAAAAAAAAAAAAAAAAAAAAAAAAAAAAAAAAAAAAAAAAAAAAAAAAAAAAAAAAAAAAAAAAAAAAAAAAAAAAAAAAAAAAAAAAAAAAAAAAAAAAAAAAAAAAAAAAAAAAAAAAAAAAAAAAAAAAAAAAAAAAAAAAAAAAAAAAAAAAAAAAAAAAAAAAAAAAAAAAAAAAAAAAAAAAAAAAAAAAAAAAAAAAAAAAAAAAAAAAAAAAAAAAAAAAAAAAAAAAAAAAAAAAAAAAAAAAAAAAAAAAAAAAAAAAAAAAAAAAAAAAAAAAAAAAAAAAAAAAAAAAAAAAAAAAAAAAAAAAAAAAAAAAAAAAAAAAAAAAAAAAAAAAAAAAAAAAAAAAAAAAAAAAAAAAAAAAAAAAAAAAAAAAAAAAAAAAAAAAAAAAAAAAAAAAAAAAAAAAAAAAAAAAAAAAAAAAAAAAAAAAAAAAAAAAAAAAAAAAAAAAAAAAAAAAAAAAAAAAAAAAAAAAAAAAAAAAAAAAAAAAAAAAAAAAAAAAAAAAAAAAAAAAAAAAAAAAAAAAAAAAAAAAAAAAAAAAAAAAAAAAAAAAAAAAAAAAAAAAAAAAAAAAAAAAAAAAAAAAAAAAAAAAAAAAAAAAAAAAAAAAAAAAAAAAAAAAAAAAAAAAAAAAAAAAAAAAAAAAAAAAAAAAAAAAAAAAAAAAAAAAAAAAAAAAAAAAAAAAAAAAAAAAAAAAAAAAAAAAAAAAAAAAAAAAAAAAAAAAAAAAAAAAAAAAAAAAAAAAAAAAAAAAAAAAAAAAAAAAAAAAAAAAAAAAAAAAAAAAAAAAAAAAAAAAAAAAAAAAAAAAAAAAAAAAAAAAAAAAAAAAAAAAAAAAAAAAAAAAAAAAAAAAAAAAAAAAAAAAAAAAAAAAAAAAAAAAAAAAAAAAAAAAAAAAAAAAAAAAAAAAAAAAAAAAAAAAAAAAAAAAAAAAAAAAAAAAAAAAAAAAAAAAAAAAAAAAAAAAAAAAAAAAAAAAAAAAAAAAAAAAAAAAAAAAAAAAAAAAAAAAAAAAAAAAAAAAAAAAAAAAAAAAAAAAAAAAAAAAAAAAAAAAAAAAAAAAAAAAAAAAAAAAAAAAAAAAAAAAAAAAAAAAAAAAAAAAAAAAAAAAAAAAAAAAAAAAAAAAAAAAAAAAAAAAAAAAAAAAAAAAAAAAAAAAAAAAAAAAAAAAAAAAAAAAAAAAAAAAAAAAAAAAAAAAAAAAAAAAAAAAAAAAAAAAAAAAAAAAAAAAAAAAAAAAAAAAAAAAAAAAAAAAAAAAAAAAAAAAAAAAAAAAAAAAAAAAAAAAAAAAAAAAAAAAAAAAAAAAAAAAAAAAAAAAAAAAAAAAAAAAAAAAAAAAAAAAAAAAAAAAAAAAAAAAAAAAAAAAAAAAAAAAAAAAAAAAAAAAAAAAAAAAAAAAAAAAAAAAAAAAAAAAAAAAAAAAAAAAAAAAAAAAAAAAAAAAAAAAAAAAAAAAAAAAAAAAAAAAAAAAAAAAAAAAAAAAAAAAAAAAAAAAAAAAAAAAAAAAAAAAAAAAAAAAAAAAAAAAAAAAAAAAAAAAAAAAAAAAAAAAAAAAAAAAAAAAAAAAAAAAAAAAAAAAAAAAAAAAAAAAAAAAAAAAAAAAAAAAAAAAAAAAAAAAAAAAAAAAAAAAAAAAAAAAAAAAAAAAAAAAAAAAAAAAAAAAAAAAAAAAAAAAAAAAAAAAAAAAAAAAAAAAAAAAAAAAAAAAAAAAAAAAAAAAAAAAAAAAAAAAAAAAAAAAAAAAAAAAAAAAAAAAAAAAAAAAAAAAAAAAAAAAAAAAAAAAAAAAAAAAAAAAAAAAAAAAAAAAAAAAAAAAAAAAAAAAAAAAAAAAAAAAAAAAAAAAAAAAAAAAAAAAAAAAAAAAAAAAAAAAAAAAAAAAAAAAAAAAAAAAAAAAAAAAAAAAAAAAAAAAAAAAAAAAAAAAAAAAAAAAAAAAAAAAAAAAAAAAAAAAAAAAAAAAAAAAAAAAAAAAAAAAAAAAAAAAAAAAAAAAAAAAAAAAAAAAAAAAAAAAAAAAAAAAAAAAAAAAAAAAAAAAAAAAAAAAAAAAAAAAAAAAAAAAAAAAAAAAAAAAAAAAAAAAAAAAAAAAAAAAAAAAAAAAAAAAAAAAAAAAAAAAAAAAAAAAAAAAAAAAAAAAAAAAAAAAAAAAAAAAAAAAAAAAAAAAAAAAAAAAAAAAAAAAAAAAAAAAAAAAAAAAAAAAAAAAAAAAAAAAAAAAAAAAAAAAAAAAAAAAAAAAAAAAAAAAAAAAAAAAAAAAAAAAAAAAAAAAAAAAAAAAAAAAAAAAAAAAAAAAAAAAAAAAAAAAAAAAAAAAAAAAAAAAAAAAAAAAAAAAAAAAAAAAAAAAAAAAAAAAAAAAAAAAAAAAAAAAAAAAAAAAAAAAAAAAAAAAAAAAAAAAAAAAAAAAAAAAAAAAAAAAAAAAAAAAAAAAAAAAAAAAAAAAAAAAAAAAAAAAAAAAAAAAAAAAAAAAAAAAAAAAAAAAAAAAAAAAAAAAAAAAAAAAAAAAAAAAAAAAAAAAAAAAAAAAAAAAAAAAAAAAAAAAAAAAAAAAAAAAAAAAAAAAAAAAAAAAAAAAAAAAAAAAAAAAAAAAAAAAAAAAAAAAAAAAAAAAAAAAAAAAAAAAAAAAAAAAAAAAAAAAAAAAAAAAAAAAAAAAAAAAAAAAAAAAAAAAAAAAAAAAAAAAAAAAAAAAAAAAAAAAAAAAAAAAAAAAAAAAAAAAAAAAAAAAAAAAAAAAAAAAAAAAAAAAAAAAAAAAAAAAAAAAAAAAAAAAAAAAAAAAAAAAAAAAAAAAAAAAAAAAAAAAAAAAAAAAAAAAAAAAAAAAAAAAAAAAAAAAAAAAAAAAAAAAAAAAAAAAAAAAAAAAAAAAAAAAAAAAAAAAAAAAAAAAAAAAAAAAAAAAAAAAAAAAAAAAAAAAAAAAAAAAAAAAAAAAAAAAAAAAAAAAAAAAAAAAAAAAAAAAAAAAAAAAAAAAAAAAAAAAAAAAAAAAAAAAAAAAAAAAAAAAAAAAAAAAAAAAAAAAAAAAAAAAAAAAAAAAAAAAAAAAAAAAAAAAAAAAAAAAAAAAAAAAAAAAAAAAAAAAAAAAAAAAAAAAAAAAAAAAAAAAAAAAAAAAAAAAAAAAAAAAAAAAAAAAAAAAAAAAAAAAAAAAAAAAAAAAAAAAAAAAAAAAAAAAPZYQO3yniHmM+oWan6qhaIj6fAfcmil4lTaFOO8zqV3vhiLxemq8Kzfok1hIff+l0/hiMxAsyy691y4B6qB1Mcogh0=</c2pa:manifest></metadata><g transform="translate(70,423) scale(0.85)"><mask id="path-1-inside-1_93_3214" fill="white">
<path d="M269.275 0.360352C269.959 -0.114607 270.872 -0.124418 271.565 0.355469L279.012 5.50879L284.846 8.84937C284.847 8.84952 284.847 8.8498 284.847 8.8501C284.847 8.8504 284.847 8.85067 284.847 8.85082C285.199 9.05229 286.137 9.54211 287.015 9.99512C287.091 10.0345 287.168 10.073 287.242 10.1113C287.527 10.2539 287.981 10.4846 288.652 10.835L288.663 10.8408L288.677 10.8486L329.146 32.7988L329.172 32.8125L354.671 47.5925C354.672 47.5926 354.672 47.5928 354.671 47.5928C354.671 47.5928 354.671 47.593 354.671 47.593C359.101 50.1585 362.787 53.3435 366.062 57.1504L366.711 57.9199L366.727 57.9395L366.742 57.96L377.422 72.2803L403.43 107.138L442.62 159.317L442.624 159.323L442.629 159.329L451.089 170.939L451.094 170.946L451.098 170.953L451.912 172.11L455.302 176.66C455.633 177.105 455.539 177.734 455.093 178.062L415.263 207.402L415.255 207.409C415.255 207.409 415.255 207.409 415.254 207.409C415.254 207.408 415.254 207.408 415.253 207.409L371.646 238.868C371.276 239.134 370.774 239.118 370.423 238.828L365.563 234.809C365.563 234.809 365.562 234.808 365.562 234.808C365.562 234.808 365.562 234.808 365.562 234.807L360.519 230.769C359.845 230.229 358.851 230.738 358.895 231.6L363.119 314.877V314.88L365.019 354.64L365.038 355.049C365.039 355.064 365.033 355.078 365.022 355.089C365.012 355.099 365.006 355.114 365.007 355.129L366.979 403.337V403.34L367.339 412.779C367.361 413.345 366.909 413.815 366.344 413.817L305.864 414.048H305.86L151.62 414.028H151.616L92.8564 413.798C92.2922 413.796 91.8416 413.327 91.8613 412.763L94.7607 330.013V330.007L96.6211 284.847V284.839L99.4476 227.091C99.4516 227.008 99.356 226.959 99.291 227.011L92.9644 232.029C92.9641 232.029 92.9641 232.03 92.9644 232.03C92.9646 232.03 92.9646 232.03 92.9643 232.031L85.0244 238.561C84.6745 238.848 84.1746 238.865 83.8066 238.601L54.4668 217.521L54.4629 217.518L21.7334 193.817L21.7236 193.811L0.40332 177.971C-0.0418017 177.64 -0.132602 177.009 0.201172 176.566L3.81152 171.776L6.26465 168.436L6.27051 168.427L6.27637 168.419L79.7061 72.6699L79.7109 72.6641C84.484 66.5258 89.1759 60.2695 94.7354 54.5889L94.7363 54.5879C97.9826 51.2796 101.901 49.0388 105.707 46.7054C105.708 46.7052 105.708 46.7049 105.708 46.7046C105.709 46.7043 105.709 46.704 105.71 46.7037C119.567 38.2272 133.667 30.7703 147.912 23.0186L171.312 10.2891L171.328 10.2803L171.345 10.2725L174.324 8.79199C178.686 6.61546 182.511 3.88108 186.514 0.878906C187.581 0.0782615 189.025 0.0880857 190.095 0.829102C206.69 12.3332 231.885 13.5098 251.29 8.69727L251.912 8.53906C258.313 6.86981 263.914 4.08785 269.275 0.360352Z"></path>
</mask><path d="M269.275 0.360352C269.959 -0.114607 270.872 -0.124418 271.565 0.355469L279.012 5.50879L284.846 8.84937C284.847 8.84952 284.847 8.8498 284.847 8.8501C284.847 8.8504 284.847 8.85067 284.847 8.85082C285.199 9.05229 286.137 9.54211 287.015 9.99512C287.091 10.0345 287.168 10.073 287.242 10.1113C287.527 10.2539 287.981 10.4846 288.652 10.835L288.663 10.8408L288.677 10.8486L329.146 32.7988L329.172 32.8125L354.671 47.5925C354.672 47.5926 354.672 47.5928 354.671 47.5928C354.671 47.5928 354.671 47.593 354.671 47.593C359.101 50.1585 362.787 53.3435 366.062 57.1504L366.711 57.9199L366.727 57.9395L366.742 57.96L377.422 72.2803L403.43 107.138L442.62 159.317L442.624 159.323L442.629 159.329L451.089 170.939L451.094 170.946L451.098 170.953L451.912 172.11L455.302 176.66C455.633 177.105 455.539 177.734 455.093 178.062L415.263 207.402L415.255 207.409C415.255 207.409 415.255 207.409 415.254 207.409C415.254 207.408 415.254 207.408 415.253 207.409L371.646 238.868C371.276 239.134 370.774 239.118 370.423 238.828L365.563 234.809C365.563 234.809 365.562 234.808 365.562 234.808C365.562 234.808 365.562 234.808 365.562 234.807L360.519 230.769C359.845 230.229 358.851 230.738 358.895 231.6L363.119 314.877V314.88L365.019 354.64L365.038 355.049C365.039 355.064 365.033 355.078 365.022 355.089C365.012 355.099 365.006 355.114 365.007 355.129L366.979 403.337V403.34L367.339 412.779C367.361 413.345 366.909 413.815 366.344 413.817L305.864 414.048H305.86L151.62 414.028H151.616L92.8564 413.798C92.2922 413.796 91.8416 413.327 91.8613 412.763L94.7607 330.013V330.007L96.6211 284.847V284.839L99.4476 227.091C99.4516 227.008 99.356 226.959 99.291 227.011L92.9644 232.029C92.9641 232.029 92.9641 232.03 92.9644 232.03C92.9646 232.03 92.9646 232.03 92.9643 232.031L85.0244 238.561C84.6745 238.848 84.1746 238.865 83.8066 238.601L54.4668 217.521L54.4629 217.518L21.7334 193.817L21.7236 193.811L0.40332 177.971C-0.0418017 177.64 -0.132602 177.009 0.201172 176.566L3.81152 171.776L6.26465 168.436L6.27051 168.427L6.27637 168.419L79.7061 72.6699L79.7109 72.6641C84.484 66.5258 89.1759 60.2695 94.7354 54.5889L94.7363 54.5879C97.9826 51.2796 101.901 49.0388 105.707 46.7054C105.708 46.7052 105.708 46.7049 105.708 46.7046C105.709 46.7043 105.709 46.704 105.71 46.7037C119.567 38.2272 133.667 30.7703 147.912 23.0186L171.312 10.2891L171.328 10.2803L171.345 10.2725L174.324 8.79199C178.686 6.61546 182.511 3.88108 186.514 0.878906C187.581 0.0782615 189.025 0.0880857 190.095 0.829102C206.69 12.3332 231.885 13.5098 251.29 8.69727L251.912 8.53906C258.313 6.86981 263.914 4.08785 269.275 0.360352Z" fill="#F8F8F6" stroke="#0D2565" stroke-width="4.255" stroke-linejoin="round"></path></g></svg>